<svg width="67" height="59" viewBox="0 0 67 59" fill="none" xmlns="http://www.w3.org/2000/svg">
<path d="M65.0243 46.205C64.6509 44.5631 64.2622 42.829 63.945 41.049C62.0627 41.673 60.0473 42.0157 57.9552 42.0157C53.1521 42.0157 48.7633 40.2357 45.4231 37.3047C45.4334 37.6525 45.4385 38.0055 45.4385 38.3533C45.4385 42.783 44.6917 47.0388 43.3208 51.0081C49.2441 55.3969 56.3439 58.3484 61.2391 58.3484C67.766 58.3484 66.5844 53.1156 65.0192 46.205H65.0243Z" fill="#FFD300"/>
<path d="M63.9909 24.8646C64.1802 22.9669 64.3694 21.0641 64.5024 19.2329C62.9372 18.2201 61.0702 17.6318 59.065 17.6318C53.5407 17.6318 49.0649 22.082 49.0649 27.5757C49.0649 30.2816 50.1545 32.7317 51.9192 34.5271C53.7351 36.3737 56.2671 37.5195 59.0701 37.5195C60.6149 37.5195 62.0778 37.1717 63.3822 36.5476C63.3413 35.9184 63.3157 35.2842 63.3157 34.655C63.3157 34.6141 63.3157 34.5681 63.3157 34.5271C63.3259 31.5808 63.6584 28.2304 63.996 24.8646H63.9909Z" fill="#EAE8E2"/>
<path d="M8.90624 0C1.38699 0 0.466268 9.8671 2.66578 22.6242C3.83203 22.3583 5.04432 22.215 6.29241 22.215C15.2592 22.215 22.5279 29.4427 22.5279 38.3533C22.5279 41.2178 21.7759 43.9032 20.4613 46.2357C26.6302 42.3226 31.5816 36.2919 31.5816 31.0489C31.5714 20.9363 17.3769 0 8.90624 0Z" fill="#B9BCBE"/>
<path d="M45.4283 37.3048C45.4027 36.3687 45.3465 35.4429 45.2544 34.5273C44.6661 28.5426 42.7173 22.9568 39.7198 18.0821C39.7045 18.0565 39.684 18.0309 39.6687 18.0054C35.464 23.453 32.4614 29.6525 32.4614 34.6603C32.4614 39.0951 35.198 43.5862 39.1316 47.4481C40.4206 48.7115 41.8375 49.9085 43.326 51.0133C44.6968 47.044 45.4436 42.7882 45.4436 38.3585C45.4436 38.0056 45.4385 37.6577 45.4283 37.3099V37.3048Z" fill="#B9BCBE"/>
<path d="M6.28728 22.2151C5.03919 22.2151 3.8269 22.3583 2.66065 22.6243C2.93687 24.2356 3.26424 25.8929 3.63764 27.586C4.59417 31.9492 3.00337 35.939 1.63251 39.3713C-0.101523 43.714 -1.47749 47.1718 3.10567 49.356C7.95993 51.6732 14.7324 49.8624 20.4511 46.2358C21.7657 43.9033 22.5176 41.2178 22.5176 38.3533C22.5176 29.4377 15.249 22.2151 6.28217 22.2151H6.28728Z" fill="#F05233"/>
<path d="M59.0653 17.6316C61.0704 17.6316 62.9375 18.2199 64.5027 19.2327C65.0602 11.4474 64.5845 4.86426 58.6203 4.86426C53.0141 4.86426 45.3619 10.6853 39.7864 17.8516C39.7506 17.9027 39.7096 17.9488 39.6738 17.9999C39.6892 18.0255 39.7096 18.0511 39.725 18.0767C42.7224 22.9565 44.6764 28.5422 45.2596 34.5218C45.3516 35.4374 45.4079 36.3633 45.4335 37.2993C48.7737 40.2303 53.1573 42.0104 57.9656 42.0104C60.0576 42.0104 62.073 41.6677 63.9554 41.0436C63.6945 39.5653 63.4848 38.0564 63.3876 36.5423C62.0832 37.1663 60.6203 37.5142 59.0755 37.5142C56.2724 37.5142 53.7405 36.3684 51.9246 34.5218C50.1599 32.7264 49.0703 30.2763 49.0703 27.5703C49.0703 22.0767 53.5461 17.6265 59.0704 17.6265L59.0653 17.6316Z" fill="#407F7F"/>
</svg>
